<?xml version="1.0" encoding="UTF-8" standalone="no"?>
<svg
   width="321.25845"
   height="316.93607"
   viewBox="0 0 321.25845 316.93607"
   version="1.1"
   id="svg2"
   xmlns="http://www.w3.org/2000/svg"
   xmlns:svg="http://www.w3.org/2000/svg">
  <defs
     id="defs2" />
  <path
     d="m 140.12004,4.1776474 c -14.40192,4.839235 -36.53201,15.9304646 -37.66085,18.8745246 -0.43279,1.12608 -0.0689,3.19768 0.80907,4.60355 1.1371,1.81936 1.59608,17.73329 1.59608,55.2949 v 52.739518 l 5.35334,5.85642 c 2.94544,3.22248 5.95842,5.8578 6.69581,5.8578 1.89517,0 30.86166,-17.51414 33.79332,-20.43201 2.25629,-2.24526 2.40101,-6.79367 2.06746,-64.671518 L 152.41591,0.04548541 140.12004,4.1776474 m 33.14689,60.2209646 c 0.42452,35.41972 0.86696,64.486828 0.98687,64.594338 1.39622,1.26528 30.60805,19.78972 31.20624,19.78972 0.44795,0 3.81791,-3.05019 7.48834,-6.77713 l 6.67513,-6.77714 -0.11991,-50.611408 c -0.0951,-40.38851 0.26877,-51.54039 1.80283,-55.2122 1.83866,-4.40093 1.76147,-4.73035 -1.78215,-7.52831 C 215.03927,18.335612 191.26899,6.7812724 180.37486,2.8462034 L 172.49784,1.4096679e-6 173.26693,64.398612 M 77.787512,40.524972 c -10.3883,8.31118 -20.57536,19.01649 -25.83084,27.14574 l -2.3638,3.65527 17.98139,21.64906 c 9.89072,11.907188 19.20532,23.287868 20.70078,25.290548 l 2.7194,3.6401 0.0427,-44.369058 c 0.0248,-24.40292 -0.47552,-44.69021 -1.1123,-45.08303 -0.6354,-0.39281 -6.09762,3.23902 -12.13736,8.07137 m 156.331648,34.86288 c -0.21088,23.30992 -0.35284,42.516618 -0.31563,42.679258 0.2922,1.29699 37.2446,-45.631588 37.57539,-47.718348 0.30323,-1.9186 -4.60216,-7.76676 -16.80018,-20.02679 -9.47585,-9.5241 -17.86974,-17.31704 -18.65262,-17.31704 -0.94,0 -1.55335,14.39916 -1.80696,42.38292 M 38.238352,88.481762 c -7.3064,8.94383 -22.06255,32.810588 -30.5887597,49.479828 L -3.6904298e-6,152.91759 H 51.059362 102.1201 l -13.481218,-16.1951 c -7.41528,-8.908 -20.53538,-24.72268 -29.15393,-35.14682 -8.61993,-10.422748 -15.84915,-18.951708 -16.06555,-18.951708 -0.21639,0 -2.54848,2.63532 -5.18105,5.8578 M 260.3552,104.16689 c -9.33389,11.09123 -22.10528,26.59718 -28.37933,34.45766 l -11.40962,14.29304 h 50.14554 50.14693 l -4.71519,-9.87005 c -10.56334,-22.1108 -33.64446,-59.045268 -36.90002,-59.045268 -1.0544,0 -9.55304,9.07477 -18.88831,20.164618 M 0.11301731,167.56899 c 0,3.7421 32.17794469,55.91651 41.01426469,66.50053 l 3.8441,4.60492 20.64289,-25.25747 c 21.13909,-25.86529 36.493418,-45.30769 36.493418,-46.2091 0,-0.27842 -22.948798,-0.50722 -50.997328,-0.50722 -28.04854,0 -50.99734469,0.39144 -50.99734469,0.86834 M 221.58068,171.18015 c 2.32934,2.46441 10.68877,12.54259 18.57819,22.39748 26.59718,33.22408 36.19709,44.79496 37.16879,44.79496 2.69046,0 43.93077,-66.58047 43.93077,-70.92214 0,-0.41211 -23.38022,-0.7498 -51.95665,-0.7498 h -51.95664 l 4.23554,4.4795 m -110.40648,6.8681 -6.30989,7.21268 v 50.61141 c 0,36.79941 -0.4576,51.61483 -1.67602,54.29012 -1.5189,3.33274 -1.32456,3.95849 2.07435,6.66962 7.69233,6.13209 40.1032,20.10398 46.64051,20.10398 0.66572,0 1.20188,-27.92587 1.20188,-62.67711 v -62.67849 l -4.47949,-2.3059 c -2.46303,-1.26804 -10.24909,-5.93637 -17.3005,-10.37314 -7.0528,-4.43539 -13.05119,-8.06585 -13.33236,-8.06585 -0.2798,0 -3.34929,3.24592 -6.81848,7.21268 m 76.8778,2.55125 -15.36123,9.58474 0.11716,63.37591 c 0.0634,34.85737 0.31701,63.37591 0.5651,63.37591 2.0716,0 29.94233,-11.99264 36.85867,-15.86017 11.76661,-6.58141 12.07673,-7.0528 10.41311,-15.82847 -0.75945,-4.00398 -1.3852,-27.81836 -1.38933,-52.92008 l -0.01,-45.64124 -7.51177,-7.92526 c -4.13079,-4.35959 -7.69371,-7.8853 -7.91562,-7.83568 -0.22328,0.0496 -7.31743,4.40369 -15.76644,9.67434 M 81.432752,213.35219 c -13.64937,15.54041 -30.32274,36.33078 -30.32274,37.80833 0,0.72499 6.97836,8.23125 15.50594,16.68164 14.41847,14.28615 22.0722,20.24457 23.79371,18.52306 0.39144,-0.39144 0.54856,-19.27423 0.34733,-41.96254 l -0.36525,-41.25133 -8.95899,10.20084 m 152.181568,-6.68065 c 0.42452,1.89517 0.7815,20.3824 0.79115,41.08318 l 0.0193,37.63604 4.40644,-2.48922 c 2.42444,-1.37004 10.81006,-8.8887 18.63746,-16.70783 l 14.22964,-14.21861 -2.89858,-4.07014 c -1.59332,-2.23837 -9.1106,-11.65634 -16.70507,-20.92958 -7.59309,-9.27187 -15.03181,-18.40867 -16.53003,-20.30384 l -2.72216,-3.44576 0.77185,3.44576"
     stroke="none"
     fill="#1c2326"
     fill-rule="evenodd"
     id="path1"
     style="stroke-width:1.37831" />
</svg>
