<?xml version="1.0" encoding="UTF-8" standalone="no"?>
<!-- Created with Inkscape (http://www.inkscape.org/) -->

<svg
   width="300mm"
   height="300mm"
   viewBox="0 0 300 300"
   version="1.1"
   id="svg1"
   xml:space="preserve"
   inkscape:version="1.4 (86a8ad7, 2024-10-11)"
   sodipodi:docname="logo.svg"
   inkscape:export-filename="logo-512x512.png"
   inkscape:export-xdpi="43.349335"
   inkscape:export-ydpi="43.349335"
   xmlns:inkscape="http://www.inkscape.org/namespaces/inkscape"
   xmlns:sodipodi="http://sodipodi.sourceforge.net/DTD/sodipodi-0.dtd"
   xmlns="http://www.w3.org/2000/svg"
   xmlns:svg="http://www.w3.org/2000/svg"><sodipodi:namedview
     id="namedview1"
     pagecolor="#493b72"
     bordercolor="#000000"
     borderopacity="0.25"
     inkscape:showpageshadow="2"
     inkscape:pageopacity="0.0"
     inkscape:pagecheckerboard="0"
     inkscape:deskcolor="#d1d1d1"
     inkscape:document-units="mm"
     inkscape:zoom="0.30741566"
     inkscape:cx="-279.75152"
     inkscape:cy="512.33564"
     inkscape:window-width="2560"
     inkscape:window-height="1369"
     inkscape:window-x="-8"
     inkscape:window-y="1072"
     inkscape:window-maximized="1"
     inkscape:current-layer="layer1"
     inkscape:export-bgcolor="#493b72ff" /><defs
     id="defs1" /><g
     inkscape:label="图层 1"
     inkscape:groupmode="layer"
     id="layer1"><path
       style="color:#000000;font-style:normal;font-variant:normal;font-weight:normal;font-stretch:normal;font-size:medium;line-height:normal;font-family:sans-serif;font-variant-ligatures:normal;font-variant-position:normal;font-variant-caps:normal;font-variant-numeric:normal;font-variant-alternates:normal;font-variant-east-asian:normal;font-feature-settings:normal;font-variation-settings:normal;text-indent:0;text-align:start;text-decoration-line:none;text-decoration-style:solid;text-decoration-color:#000000;letter-spacing:normal;word-spacing:normal;text-transform:none;writing-mode:lr-tb;direction:ltr;text-orientation:mixed;dominant-baseline:auto;baseline-shift:baseline;text-anchor:start;white-space:normal;shape-padding:0;shape-margin:0;inline-size:0;clip-rule:nonzero;display:inline;overflow:visible;visibility:visible;isolation:auto;mix-blend-mode:normal;color-interpolation:sRGB;color-interpolation-filters:linearRGB;solid-color:#000000;solid-opacity:1;vector-effect:none;fill:#ffffff;fill-opacity:1;fill-rule:nonzero;stroke:none;stroke-width:1.34623;stroke-linecap:butt;stroke-linejoin:miter;stroke-miterlimit:4;stroke-dasharray:none;stroke-dashoffset:0;stroke-opacity:1;-inkscape-stroke:none;color-rendering:auto;image-rendering:auto;shape-rendering:auto;text-rendering:auto;enable-background:accumulate;stop-color:#000000;stop-opacity:1"
       d="m 275.82502,111.7007 c -2.57084,5.61217 -8.12795,10.52595 -11.63173,15.67242 -7.0317,10.32831 -12.43507,23.98451 -22.56263,31.70103 11.24429,4.68272 17.20894,19.55821 24.17594,28.85149 3.12217,4.16468 7.9111,8.45097 10.01842,13.17907 -9.96341,-4.08768 -18.23764,-11.84836 -25.13733,-19.94671 -4.20875,-4.93996 -7.86885,-10.58743 -12.97514,-14.67228 -4.30608,-3.4447 -8.69575,-3.18989 -13.53528,-5.08343 -3.73765,-1.46241 -6.81876,-4.43135 -9.10456,-7.67102 -5.43746,-7.70646 -7.65322,-17.15364 -11.50615,-25.64577 -1.41065,-3.10919 -3.98883,-7.74504 -7.88458,-7.91837 -6.31805,-0.28114 -9.9109,10.00792 -11.64081,14.686 -6.19548,16.75396 -7.36607,34.76983 -12.93666,51.64774 -2.25303,6.82625 -7.99907,20.10315 -17.45311,15.37613 -9.53521,-4.76762 -10.68999,-18.97204 -12.19816,-28.19901 -2.50085,-15.30026 -4.9766,-30.56039 -10.11957,-45.2363 -2.6758,-7.63563 -6.51987,-16.20724 -13.65756,-20.63575 -6.61417,-4.10367 -15.56628,-1.669 -22.440046,0.5714 -17.821547,5.80874 -34.100999,16.92446 -47.373432,30.03907 -4.042139,3.99408 -7.917072,8.13817 -11.602056,12.46533 -1.284036,1.5078 -3.402982,3.52603 -3.199391,5.69907 0.406725,4.34142 6.982528,9.46026 9.782885,12.46668 7.476557,8.02674 15.848522,15.98487 25.677654,21.09226 5.271568,2.73917 11.690165,4.17014 17.097176,0.95834 4.748662,-2.82072 6.856692,-7.42844 9.370904,-12.07723 6.446126,-11.91889 8.806366,-25.78755 9.863426,-39.18104 9.01134,13.41174 3.36947,32.61797 -3.11777,45.59248 -3.554737,7.10947 -8.760705,13.78354 -16.828946,15.8582 -18.68684,4.80515 -36.100818,-14.04784 -47.734844,-25.83292 -4.219934,-4.27474 -10.426467,-9.84881 -12.422987,-15.67105 -3.497262,-10.19873 9.873515,-20.65095 16.347688,-26.74622 14.622187,-13.76641 30.974028,-25.84695 50.221585,-32.26281 8.156292,-2.71876 17.455994,-4.925009 26.001974,-2.798949 9.12377,2.269809 14.25402,9.264109 18.25369,17.284069 7.33884,14.71548 9.96924,32.01932 12.64698,48.08582 1.08848,6.53095 2.049,13.21288 3.85625,19.59051 0.66857,2.35925 1.59831,5.59376 4.06927,6.6882 2.09697,0.92883 3.61864,-1.57921 4.41337,-3.12628 2.28861,-4.45515 3.61355,-9.37804 4.69507,-14.24765 3.15572,-14.20872 5.70403,-28.71132 10.81903,-42.38676 2.40837,-6.43905 5.54199,-13.58621 11.77218,-17.14033 1.784,-1.01773 3.67948,-1.50985 5.69906,-1.78398 16.77315,-2.27691 20.31962,19.92134 25.85493,31.03481 1.9985,4.01246 5.1931,10.65034 10.47657,10.65714 6.94956,0.009 12.29048,-9.32619 15.82358,-14.21904 7.39164,-10.23637 17.75682,-22.50275 30.1251,-26.71436 M 72.796015,135.70047 c 13.881464,-0.85687 16.126584,21.24207 2.137151,22.27295 -2.633467,0.19408 -5.181238,-0.0712 -7.480022,-1.46875 -9.374596,-5.69917 -5.428743,-20.13931 5.342871,-20.8042 z"
       id="path1"
       sodipodi:nodetypes="cscscsssssssssssscssssssscssssssssssssssscscscsscs" /></g></svg>
